<svg id="ezQIi2Uuj1E1" xmlns="http://www.w3.org/2000/svg" xmlns:xlink="http://www.w3.org/1999/xlink" viewBox="0 0 1100 1100" shape-rendering="geometricPrecision" text-rendering="geometricPrecision"><g id="ezQIi2Uuj1E2"><rect id="ezQIi2Uuj1E3" display="none" width="84" height="321.6" rx="0" ry="0" transform="matrix(1 0 0 1 760.1 485.6)" fill="rgb(0,0,0)" stroke="rgb(255,255,255)" stroke-width="1" stroke-miterlimit="10"/><g id="ezQIi2Uuj1E4"><g id="ezQIi2Uuj1E5"><path id="ezQIi2Uuj1E6" d="M477.6,78.7C478.6,78.9,479.6,79.3,480.6,79.3C583.8,85,672.8,124,747.5,195.1C806.9,251.6,845.6,320.4,865.5,399.8C866.3,403,867.1,406.3,867.5,409.6C868.3,415.8,865.8,419.1,859.5,419.5C853.8,419.8,848,419.7,842.3,419.7C788,419.7,733.8,419.7,679.5,419.7C677.9,419.7,676.3,419.7,674.7,419.6C668.3,419.3,663.5,416.5,660.3,411C659,408.7,657.8,406.3,656.7,403.9C641.7,373.4,621.4,347.1,594.9,325.8C565.2,301.9,531.4,286.9,493.8,281C448.2,273.9,404.1,278.9,362.6,299.6C301.7,329.9,262.7,378.5,245.5,444.3C239.3,468.2,237.1,492.6,238.5,517.3C241.2,565.1,258.5,607,290.6,642.5C317.9,672.6,350.2,695.7,388.6,709.6C414,718.8,440.2,722.5,467.2,720.8C500.1,718.8,531,709.3,560.6,695.2C564.1,693.5,567.5,691.8,571,690.1C573.5,688.9,573.5,689,576.6,690.8C576.6,692.2,576.6,693.8,576.6,695.4C576.6,744.7,576.5,794.1,576.5,843.4C576.5,858.3,576.7,873.3,576.7,888.2C576.7,889.8,576.7,891.4,576.5,893C575.9,898.2,573.4,902,568.6,904.2C566.7,905.1,564.6,905.8,562.6,906.4C525.2,916.7,487.1,921.5,448.3,920C339.3,915.8,245.7,875,166.8,800.2C118,753.8,82.7,698.2,61.3,633.9C52.7,607.9,46.9,581.2,43.9,554C42.7,543.3,41.9,532.5,40.9,521.8C40.8,520.5,40.3,519.3,40,518C40,505.7,40,493.5,40,481.2C40.5,478.5,41.2,475.8,41.4,473.1C42.9,446.1,47,419.6,53.7,393.4C72.2,320.9,107.4,257.7,159.8,204.2C236.6,125.8,341.9,83.8,440.7,79.3C441.9,79.2,443,78.9,444.2,78.7C455.2,78.7,466.4,78.7,477.6,78.7Z" fill="rgb(255,255,255)" stroke="none" stroke-width="1"/><path id="ezQIi2Uuj1E7" d="M633.6,1021.3C631.3,1020.8,629,1020.2,626.6,1019.8C618.9,1018.2,614.8,1014.4,613.6,1006.6C612.8,1001.9,612.6,997.1,612.6,992.3C612.6,823.1,612.6,653.9,612.6,484.7C612.6,480.1,612.8,475.4,613.6,470.8C615,462,619.5,457.7,628.4,456.6C633.3,456,638.2,455.7,643.1,455.7C681.2,455.6,719.4,455.7,757.5,455.8C761.6,455.8,765.7,456.4,769.8,457.2C776.8,458.6,781,463.3,782.3,470.1C783.1,474,783.4,478,783.5,482C783.7,518.9,783.8,555.9,783.8,592.8C783.8,605.2,783.5,617.6,783.4,630C783.4,632.4,783.6,634.8,784,637.1C785.1,643.6,788.6,646.9,795.3,647.5C797.8,647.8,800.4,647.6,802.9,647.6C821.8,647.4,840.7,647.2,859.7,647.1C865.2,647.1,870.6,647.5,876.1,647.5C885.9,647.6,889.5,644.3,889.6,634.4C889.7,623.9,889.5,613.3,889.4,602.8C889.3,588.5,889.2,574.3,889.2,560C889.2,534.9,889.2,509.9,889.4,484.8C889.4,480.3,889.8,475.7,890.5,471.3C892.1,462.1,896.8,457.6,906.2,456.4C910.7,455.8,915.2,455.5,919.7,455.5C958.2,455.5,996.8,455.5,1035.3,455.6C1039.4,455.6,1043.6,456.2,1047.5,457.1C1054.4,458.7,1058.5,463.3,1059.4,470.5C1059.5,471.1,1059.9,471.7,1060.1,472.3C1060.1,649.7,1060.1,827,1060.1,1004.4C1059.9,1004.7,1059.6,1005,1059.5,1005.4C1057.7,1014.6,1054.3,1017.9,1045,1019.8C1043.1,1020.2,1041.2,1020.7,1039.3,1021.2C996.6,1021.2,954,1021.2,911.3,1021.2C909,1020.7,906.7,1020.1,904.3,1019.7C896.7,1018.3,891.9,1013.8,890.4,1006.2C890,1004.1,889.6,1002,889.6,999.9C889.4,990.6,889.2,981.3,889.1,971.9C889,942.2,889,912.5,889.1,882.8C889.1,870.4,889.5,858,889.5,845.6C889.5,843.1,889.2,840.5,888.7,838.1C887.7,833.7,884.7,830.9,880.2,830.2C877.2,829.7,874.1,829.5,871.1,829.7C848.1,830.6,825,830.9,802,829.6C799.1,829.4,796.1,829.7,793.3,830.1C788.2,830.8,785.2,834,784.2,838.9C783.7,841.5,783.4,844.2,783.4,846.8C783.5,859.5,783.8,872.1,783.8,884.8C783.8,918.8,783.8,952.8,783.6,986.7C783.6,992.9,783.3,999.2,782.4,1005.4C781.2,1014.1,776.8,1018.2,768.2,1019.8C765.7,1020.3,763.3,1020.8,760.9,1021.4C718.4,1021.3,676,1021.3,633.6,1021.3ZM1035.2,646.1C999,635.3,963,624.6,926.6,613.8C926.6,625.2,926.6,636.1,926.6,647.3C941.9,652.1,957.2,656.9,972.5,661.6C972.5,661.9,972.5,662.2,972.5,662.5C957.3,666.5,942,670.4,926.8,674.4C926.8,686.9,926.8,699.1,926.8,711.3C942.2,716.1,957.4,720.8,972.5,725.6C972.5,725.9,972.5,726.2,972.5,726.5C957.2,730.6,941.9,734.8,926.8,738.9C926.8,749.3,926.8,759.2,926.8,769.6C963.2,760.2,999.2,750.8,1035.2,741.4C1035.2,731,1035.2,721.1,1035.2,711C1021.1,705,1007.1,699,993.1,693C993.1,692.7,993.1,692.5,993.1,692.2C1007.2,687.1,1021.2,682,1035.2,677C1035.2,666.5,1035.2,656.4,1035.2,646.1ZM965.4,894.2C965.4,910.8,965.4,927,965.4,943.3C960,943.3,955,943.3,949.6,943.3C949.6,926.8,949.6,910.6,949.6,894.5C944.7,893.7,929.6,893.9,926.7,894.7C925.9,902.8,926.3,984,927.1,986.8C963.1,986.8,999,986.8,1035.1,986.8C1035.1,972.4,1035.1,958.2,1035.1,943.6C1030.2,943.6,1025.6,943.6,1021,943.6C1016.3,943.6,1011.7,943.6,1007,943.6C1002.4,943.6,997.8,943.8,992.8,943.4C992.8,926.7,992.8,910.5,992.8,894.2C983.6,894.2,974.8,894.2,965.4,894.2ZM953,850C966.9,850,980.5,850,994,850C1007.7,850,1021.3,850.1,1035,849.9C1035,838,1035,826.6,1035,814.8C1007.8,814.8,980.8,814.8,953.3,814.8C953.3,804.2,953.3,794,953.3,783.7C944.1,783.7,935.4,783.7,926.6,783.7C926.6,816.8,926.6,849.7,926.6,882.6C935.4,882.6,944,882.6,952.9,882.6C953,871.7,953,861,953,850ZM959.7,531.1C959.7,536.1,959.7,540.5,959.7,544.9C959.7,549.3,959.7,553.7,959.7,558.1C959.7,562.6,959.7,567.2,959.7,571.7C959.7,576,959.5,580.4,959.9,584.7C967.8,584.7,975.2,584.7,982.9,584.7C982.9,575.5,982.9,566.6,982.9,557.7C983,548.8,982.7,540,983.1,531C990.3,530.6,997,531.2,1003.7,530.6C1003.7,524.1,1003.7,518,1003.7,511.5C996.9,511.5,990.3,511.5,983.2,511.5C983.2,504.2,983.2,497.4,983.2,490.4C975.2,490.4,967.7,490.4,959.7,490.4C959.7,497.2,959.7,503.8,959.7,510.9C952.4,510.9,945.5,510.9,938.5,510.9C938.5,517.8,938.5,524.2,938.5,531.1C945.5,531.1,952.2,531.1,959.7,531.1Z" fill="rgb(255,255,255)" stroke="none" stroke-width="1"/></g></g></g></svg>